<?xml version="1.0" encoding="UTF-8" standalone="no"?>
<svg
   xmlns:dc="http://purl.org/dc/elements/1.1/"
   xmlns:cc="http://creativecommons.org/ns#"
   xmlns:rdf="http://www.w3.org/1999/02/22-rdf-syntax-ns#"
   xmlns:svg="http://www.w3.org/2000/svg"
   xmlns="http://www.w3.org/2000/svg"
   xmlns:sodipodi="http://sodipodi.sourceforge.net/DTD/sodipodi-0.dtd"
   xmlns:inkscape="http://www.inkscape.org/namespaces/inkscape"
   version="1.1"
   x="0px"
   y="0px"
   viewBox="0 0 1000 1000"
   enable-background="new 0 0 1000 1000"
   xml:space="preserve"
   id="svg8"
   sodipodi:docname="bfd.svg"
   inkscape:version="0.92.5 (2060ec1f9f, 2020-04-08)"><metadata
   id="metadata14"><rdf:RDF><cc:Work
       rdf:about=""><dc:format>image/svg+xml</dc:format><dc:type
         rdf:resource="http://purl.org/dc/dcmitype/StillImage" /></cc:Work></rdf:RDF></metadata><defs
   id="defs12" /><sodipodi:namedview
   pagecolor="#ffffff"
   bordercolor="#666666"
   borderopacity="1"
   objecttolerance="10"
   gridtolerance="10"
   guidetolerance="10"
   inkscape:pageopacity="0"
   inkscape:pageshadow="2"
   inkscape:window-width="1593"
   inkscape:window-height="928"
   id="namedview10"
   showgrid="false"
   inkscape:zoom="0.6675088"
   inkscape:cx="495.76271"
   inkscape:cy="488.01514"
   inkscape:window-x="0"
   inkscape:window-y="0"
   inkscape:window-maximized="0"
   inkscape:current-layer="svg8" />
<g
   style="fill:#00247d;fill-opacity:1"
   id="g4"
   transform="matrix(1,0,0,-1,0,1952)"><path
     inkscape:connector-curvature="0"
     style="fill:#00247d;fill-opacity:1"
     id="path2"
     d="m 868.5,1550.6 c 24.7,24.8 88.4,95 64.5,136.4 l -12,20.8 c -31.8,55.1 -135.2,18.5 -153.5,11.5 11.7,32.9 37.7,122.3 -11.3,150.7 l -20.8,12 c -42,24.2 -113.4,-41.5 -137.3,-65.4 -6.1,33.5 -28,125.5 -85.2,125.5 h -24 c -48.4,0 -77.4,-92.5 -86.2,-125.2 -22.3,26.2 -87.2,94.5 -136.6,66 l -20.8,-12 c -42.1,-24.3 -20.7,-119.1 -12,-151.5 -32.4,11.5 -122.8,38.3 -151.2,-11.1 l -12,-20.8 c -24.2,-42 41.5,-113.4 65.4,-137.2 C 101.8,1543.9 10,1522 10,1464.8 v -24 c 0,-50 98.3,-79.2 127.9,-86.9 -26.5,-22.6 -94,-87.1 -65.6,-136.2 l 12,-20.8 c 23.7,-41 114.3,-21.8 148.9,-12.7 -8.9,-33.2 -29.6,-126.9 12.2,-151 l 20.8,-12 c 52.7,-30.4 120.3,44.7 136.9,64.6 9,-33.4 37.8,-123.8 85.8,-123.8 h 24 c 60.9,0 81.9,98.8 86.3,124.4 24.9,-24.8 94.9,-88.2 136.2,-64.4 l 20.8,12 c 52.7,30.5 21.5,126.5 12.6,150.9 34,-9 126.3,-29 150.1,12.4 l 12,20.8 c 30.4,52.7 -44.6,120.3 -64.6,136.9 33.8,9.1 123.8,38 123.8,85.8 v 24 c -0.1,59 -92.7,80.5 -121.6,85.8 z M 399.3,1095.3 c 0.4,-0.1 0.9,-0.3 1.4,-0.4 0,-0.1 0.1,-0.4 0.1,-0.5 z M 500,1236.6 c -119,0 -215.4,96.4 -215.4,215.4 0,119 96.5,215.4 215.4,215.4 119,0 215.4,-96.5 215.4,-215.4 0,-119 -96.5,-215.4 -215.4,-215.4 z m 265.7,478 c 0.1,0.2 0.2,0.4 0.2,0.5 l 0.8,-1.5 c -0.3,0.3 -0.7,0.7 -1,1 z M 500,1548.7 c -54.1,0 -97.9,-43.8 -97.9,-97.9 0,-54.1 43.8,-97.9 97.9,-97.9 54.1,0 97.9,43.8 97.9,97.9 0,54.1 -43.8,97.9 -97.9,97.9 z" /></g>
<path
   style="fill:#ffffff;fill-opacity:1;stroke-width:1.49810755"
   d="M 477.18618,714.08482 C 381.41274,703.39613 303.57639,630.23326 287.79499,536.06511 c -3.09755,-18.4832 -3.09755,-53.64702 0,-72.13022 14.07444,-83.98266 78.16728,-152.68161 161.33416,-172.92866 97.22072,-23.66845 197.4396,22.56141 242.91011,112.05174 15.82743,31.14991 22.47964,59.83714 22.47964,96.94203 0,27.58979 -2.13686,41.94382 -9.90971,66.56693 -30.0857,95.30656 -127.73065,158.64394 -227.42301,147.51789 z M 524.2924,595.90041 c 33.72414,-8.62519 61.50041,-36.34187 70.58396,-70.43258 3.38016,-12.68583 3.44346,-35.06546 0.13558,-47.93944 -4.60931,-17.93903 -12.19818,-30.92604 -26.32829,-45.05614 -20.1602,-20.1602 -41.08678,-28.88394 -69.02586,-28.77505 -26.67481,0.10396 -49.82835,9.6669 -68.16389,28.15325 -11.94974,12.04801 -18.68579,22.64152 -24.43964,38.43519 -3.61912,9.93408 -3.99605,12.92787 -3.92978,31.21247 0.0685,18.89376 0.37928,21.03224 4.72354,32.50162 7.77373,20.52361 21.13782,37.47103 38.78517,49.18467 8.46472,5.61856 24.32928,12.17003 34.29826,14.16389 11.53838,2.30776 31.2501,1.64955 43.36095,-1.44788 z"
   id="path823"
   inkscape:connector-curvature="0" /><path
   style="fill:#cf142b;fill-opacity:1;stroke-width:1.470294"
   id="path831"
   sodipodi:type="arc"
   sodipodi:cx="500"
   sodipodi:cy="500"
   sodipodi:rx="110.1109"
   sodipodi:ry="110.11092"
   sodipodi:start="1.4649602"
   sodipodi:end="1.4552328"
   d="M 511.63197,609.49481 A 110.1109,110.11092 0 0 1 390.53383,511.89821 110.1109,110.11092 0 0 1 487.83562,390.56306 110.1109,110.11092 0 0 1 609.40701,487.56952 110.1109,110.11092 0 0 1 512.6965,609.37648"
   sodipodi:open="true" /></svg>